<svg version="1.1" id="Layer_1" xmlns="http://www.w3.org/2000/svg" xmlns:xlink="http://www.w3.org/1999/xlink" x="0px" y="0px"
	 width="100%" viewBox="0 0 1024 1024" enable-background="new 0 0 1024 1024" xml:space="preserve">
<path fill="#000000" opacity="1.000000" stroke="none" 
	d="
M439.455322,600.639771 
	C415.538177,602.933533 392.846588,599.673035 370.838043,591.290100 
	C367.219421,589.911743 365.788513,588.257935 366.435852,583.898926 
	C370.770355,554.710876 382.463257,528.840210 402.515076,507.383881 
	C409.140015,500.294830 412.117920,493.079803 413.728699,483.987122 
	C418.095276,459.337769 430.656860,439.198914 450.633484,424.274414 
	C455.252167,420.823822 457.269562,417.281494 458.714539,412.275208 
	C467.276215,382.611847 483.573578,358.001953 507.304535,338.218140 
	C511.293762,334.892426 514.025208,334.462646 518.357544,338.040802 
	C542.351074,357.857635 558.951294,382.564911 567.027893,412.505371 
	C568.496155,417.948364 571.114258,420.600037 574.872559,423.514191 
	C596.561951,440.332092 609.760986,462.487457 613.339905,489.509888 
	C614.257568,496.438599 617.388550,500.224609 621.348633,504.545105 
	C642.314636,527.419128 655.235901,554.098511 659.622375,584.903320 
	C660.111328,588.337341 658.937988,589.768250 656.062012,590.883789 
	C626.448303,602.370117 596.132874,604.701904 565.395447,596.759277 
	C560.217896,595.421326 556.542664,595.990234 552.030273,597.828247 
	C527.198425,607.942566 502.098877,607.955139 476.917145,599.071472 
	C474.761505,598.311035 472.399750,597.795593 470.867065,595.780945 
	C469.287476,593.704712 467.463318,595.242615 465.871002,595.679749 
	C457.346069,598.020081 448.751892,599.932556 439.455322,600.639771 
M505.020111,536.489014 
	C507.663513,539.429138 510.062744,542.618958 513.307129,544.950623 
	C532.537109,524.617493 544.886047,502.810364 548.170471,483.425385 
	C524.463867,476.617157 500.853302,476.696899 477.216797,483.723816 
	C482.721497,503.465790 491.449371,520.865662 505.020111,536.489014 
M510.631439,423.369202 
	C500.201813,423.708069 490.377777,426.451996 480.603546,430.020416 
	C476.454651,431.535187 475.211182,433.467102 474.732147,437.532410 
	C473.757538,445.803497 474.292542,454.077881 473.836914,462.631104 
	C476.210754,462.105804 478.455383,461.615509 480.697021,461.111969 
	C501.973419,456.332947 523.280090,456.717957 544.580566,460.865448 
	C551.288147,462.171539 551.614624,462.853241 550.552795,469.496033 
	C550.325500,470.918091 550.330627,472.377289 550.228699,473.819397 
	C552.829895,460.511780 551.884949,447.103302 551.357056,433.584320 
	C542.499268,427.415955 526.797302,423.351959 510.631439,423.369202 
M543.993591,541.434937 
	C539.405212,547.234009 535.032593,553.218567 529.235107,558.208862 
	C536.277649,562.873474 543.528748,566.540710 550.751221,570.332275 
	C554.613525,572.359863 556.823853,571.868042 559.949768,569.602722 
	C580.399658,554.783325 590.648376,534.268311 593.916992,509.726929 
	C594.105103,508.314453 593.652161,507.492859 592.706177,506.735626 
	C585.223633,500.746216 577.383606,495.333374 568.293762,491.333862 
	C563.048279,509.411224 555.577271,526.036804 543.993591,541.434937 
M465.422791,512.943054 
	C462.364899,506.009552 459.940247,498.833832 457.771271,491.328705 
	C449.327332,494.815948 442.607880,499.993073 435.493683,504.558228 
	C433.123627,506.079010 432.200562,507.325256 432.479034,509.935394 
	C433.966034,523.870605 438.066406,536.814453 445.801056,548.675598 
	C451.974182,558.142090 460.505035,565.116028 468.988586,572.474854 
	C478.566956,569.012207 487.719696,564.590088 496.292694,558.197144 
	C483.351593,544.844116 473.150970,530.179626 465.422791,512.943054 
M633.688660,565.686401 
	C628.966858,551.225403 621.825012,538.116272 611.990784,525.956909 
	C607.675049,547.248840 596.821472,564.154541 581.871094,579.041565 
	C597.604797,581.545105 612.770691,581.088440 627.781433,577.637451 
	C637.298584,575.449402 637.298218,576.955200 633.688660,565.686401 
M401.930847,578.567444 
	C415.734314,580.541321 429.535797,581.839294 444.032532,578.650757 
	C428.421021,564.081055 418.698853,546.674805 413.615051,526.248230 
	C404.617920,537.938416 397.553589,549.794739 393.229706,563.072449 
	C388.280548,578.270020 387.647736,574.906250 401.930847,578.567444 
M504.640808,402.735535 
	C517.437866,402.268829 530.150635,402.731689 543.370972,407.093414 
	C536.924744,389.709442 527.190125,375.852539 515.151794,363.483551 
	C513.537231,361.824646 511.980103,362.144531 510.438843,363.768372 
	C498.567993,376.275421 488.970123,390.221222 482.839661,406.743561 
	C489.993286,405.172089 496.692902,403.186279 504.640808,402.735535 
M527.159424,583.144958 
	C523.367004,577.798279 516.893494,576.213440 512.339844,571.912415 
	C508.379700,576.848145 502.573914,578.567017 497.974182,582.853333 
	C507.938416,585.664612 517.269958,585.131409 527.159424,583.144958 
M445.130280,460.615479 
	C442.019684,465.787079 438.554932,470.808441 437.547272,477.772522 
	C443.548889,474.754456 448.823669,472.101898 454.237671,469.379333 
	C452.345703,461.971069 452.890594,454.650421 452.669189,447.306763 
	C452.616150,452.885162 447.772095,455.707550 445.130280,460.615479 
M573.182495,457.690704 
	C572.914001,461.961884 572.645447,466.233063 572.371521,470.589508 
	C578.331665,471.652130 582.666748,475.641235 588.152954,477.424042 
	C587.417114,470.081970 579.620300,456.706177 573.201599,451.150848 
	C573.201599,452.849457 573.201599,454.830994 573.182495,457.690704 
z"/>
<path fill="#000000" opacity="1.000000" stroke="none" 
	d="
M526.349915,681.262329 
	C521.541504,682.768982 519.768250,680.853638 519.818054,676.492981 
	C519.884521,670.675171 519.834473,664.856079 519.834473,657.650024 
	C516.554810,663.368042 515.438293,668.501404 513.520264,673.293396 
	C512.840820,674.991028 512.181702,676.702515 511.634003,678.445618 
	C510.883575,680.833984 509.296082,681.983459 506.834320,682.010864 
	C504.100220,682.041321 502.595825,680.559082 501.756165,678.073547 
	C499.658813,671.865051 497.489532,665.680908 494.178741,659.672302 
	C494.178741,665.254089 494.146118,670.836121 494.192017,676.417542 
	C494.216217,679.357422 493.755585,681.866333 490.042206,681.860535 
	C486.321625,681.854675 485.884338,679.320068 485.900665,676.393372 
	C485.946198,668.234680 485.915741,660.075562 485.971497,651.916992 
	C485.990082,649.194702 486.075623,646.153809 489.674408,645.877258 
	C493.538910,645.580261 497.969391,644.588562 499.899353,649.670593 
	C502.076965,655.404541 504.152771,661.177307 506.600769,667.823486 
	C510.186615,662.758545 511.358337,657.624084 513.199463,652.806213 
	C515.696716,646.271484 517.794678,644.940979 523.886597,645.730896 
	C526.252625,646.037720 527.799316,647.254578 527.821289,649.470947 
	C527.920227,659.448059 527.822754,669.427490 527.723877,679.405334 
	C527.718323,679.961792 527.065613,680.511780 526.349915,681.262329 
z"/>
<path fill="#000000" opacity="1.000000" stroke="none" 
	d="
M376.958374,665.469238 
	C376.978638,669.580383 376.975983,673.241272 376.968994,676.902161 
	C376.963623,679.712402 376.120209,681.913757 372.829071,681.952881 
	C369.529144,681.992126 368.657684,679.948059 368.733429,677.020508 
	C368.823761,673.528503 368.771851,670.031250 368.711731,666.537476 
	C368.673798,664.331238 368.562134,661.659424 365.714447,661.662231 
	C362.871033,661.665039 361.374420,663.859863 361.308228,666.724976 
	C361.227570,670.217896 361.184601,673.715576 361.273193,677.207397 
	C361.342468,679.936890 360.499146,681.854553 357.493225,681.932678 
	C354.489838,682.010742 352.866302,680.570618 352.925507,677.382935 
	C352.993469,673.723633 352.965027,670.060181 352.871948,666.401245 
	C352.816986,664.241699 352.864502,661.561218 349.818207,661.668945 
	C347.260651,661.759399 345.556244,663.651367 345.417206,666.287415 
	C345.224609,669.939087 345.253357,673.608765 345.344238,677.266846 
	C345.411804,679.985046 344.687439,681.901611 341.584198,681.914978 
	C338.614777,681.927795 337.572052,680.300354 337.621277,677.442932 
	C337.727386,671.287476 337.753815,665.126709 337.617523,658.972473 
	C337.525604,654.822388 339.758087,654.141541 343.062988,654.984863 
	C344.268768,655.292480 345.203857,656.544128 346.688690,655.611572 
	C351.320709,652.702209 355.572571,653.812012 359.560272,657.196838 
	C360.392700,656.733276 361.103485,656.333740 361.817596,655.940308 
	C370.081360,651.386719 375.271790,654.504333 376.958374,665.469238 
z"/>
<path fill="#000000" opacity="1.000000" stroke="none" 
	d="
M273.263458,665.840576 
	C274.606689,669.665527 275.954285,673.078979 276.999298,676.582703 
	C277.517914,678.321533 278.854248,680.708984 275.905609,681.606018 
	C273.295807,682.400024 270.616455,682.586060 268.997375,679.506958 
	C266.257141,674.295776 262.934937,672.913269 257.182892,674.064331 
	C254.663940,674.568359 254.172287,676.457825 253.524857,678.296265 
	C252.626862,680.846130 250.931717,682.141113 248.253494,681.907349 
	C245.952301,681.706543 244.325500,680.775208 245.284271,678.028381 
	C248.738144,668.133423 252.204254,658.242676 255.686996,648.357849 
	C256.799744,645.199585 259.535278,645.784485 261.989899,645.673584 
	C264.561646,645.557434 266.462494,646.196777 267.373413,648.978394 
	C269.185211,654.510864 271.207611,659.974365 273.263458,665.840576 
M261.627502,657.033752 
	C261.528168,656.900757 261.454315,656.723389 261.322205,656.647461 
	C261.195038,656.574402 260.887939,656.549255 260.863800,656.599976 
	C259.404877,659.667358 257.804779,662.701843 258.021423,666.280762 
	C260.193146,667.046265 262.079437,667.263489 264.056366,666.129333 
	C264.246338,663.017456 262.572968,660.409607 261.627502,657.033752 
z"/>
<path fill="#000000" opacity="1.000000" stroke="none" 
	d="
M285.577271,655.255493 
	C289.264038,653.287048 292.665680,654.213074 296.012756,655.213867 
	C297.317719,652.350525 296.588104,649.654663 296.728149,647.047241 
	C296.873657,644.337097 298.206940,643.087830 300.820801,643.139282 
	C303.365265,643.189392 304.950012,644.393005 304.952698,647.087402 
	C304.962860,657.252930 305.020691,667.419617 304.875427,677.583252 
	C304.823303,681.230530 302.632660,682.976868 299.234467,681.296509 
	C297.270905,680.325562 295.976746,680.669128 294.207886,681.355103 
	C287.447388,683.976868 281.459900,681.065674 280.171844,673.959412 
	C278.946655,667.199707 278.389923,660.193115 285.577271,655.255493 
M287.706116,670.638123 
	C288.664612,672.657532 289.064362,675.560059 292.153778,675.029053 
	C294.763275,674.580505 296.492981,672.721375 296.676117,669.859741 
	C296.903839,666.302307 297.142151,662.108032 292.585999,661.627686 
	C287.717865,661.114502 287.867584,665.568848 287.402496,668.940491 
	C287.358704,669.257935 287.459839,669.595337 287.706116,670.638123 
z"/>
<path fill="#000000" opacity="1.000000" stroke="none" 
	d="
M560.091797,666.411255 
	C562.428772,655.577698 566.190735,652.935486 576.333008,654.868347 
	C578.187317,652.675476 577.568054,649.925659 577.583374,647.386780 
	C577.599304,644.752441 578.587769,643.258667 581.295166,643.173706 
	C584.283081,643.079956 585.352295,644.662842 585.331848,647.530701 
	C585.260620,657.507080 585.369019,667.484802 585.274109,677.460754 
	C585.234009,681.679688 583.437439,682.801514 579.570862,681.131470 
	C578.508057,680.672363 577.814087,680.116089 576.448364,680.542358 
	C565.925415,683.826721 560.939392,680.386047 559.959412,669.314209 
	C559.886719,668.492920 559.998718,667.655273 560.091797,666.411255 
M576.284668,663.363708 
	C571.586548,660.104980 568.918945,661.228149 568.360718,666.768799 
	C568.228577,668.079529 568.234375,669.461304 568.501953,670.742493 
	C568.959900,672.934143 569.867126,675.160645 572.511536,675.124023 
	C574.855530,675.091675 576.614441,673.458679 577.242676,671.258362 
	C577.926514,668.863098 578.006531,666.325562 576.284668,663.363708 
z"/>
<path fill="#000000" opacity="1.000000" stroke="none" 
	d="
M636.597839,681.371826 
	C632.806458,681.890381 634.542114,684.622253 634.465881,686.334167 
	C634.328308,689.420959 633.780701,691.479431 630.041077,691.362305 
	C626.190247,691.241577 626.574707,688.700623 626.586060,686.147705 
	C626.625305,677.350769 626.565308,668.553223 626.630615,659.756531 
	C626.667847,654.735779 628.034790,653.610474 632.590515,655.499023 
	C634.569885,656.319641 635.678101,655.487061 637.161743,654.945435 
	C644.138611,652.398743 649.841370,655.640869 651.239929,662.952026 
	C651.836487,666.071045 651.869568,669.196045 651.317566,672.343262 
	C649.927734,680.265930 644.886108,683.492493 636.597839,681.371826 
M636.137268,662.776489 
	C633.555420,665.208191 634.038330,668.347656 634.700134,671.183105 
	C635.239014,673.491882 637.052124,675.371216 639.812012,674.964233 
	C642.570557,674.557434 644.304565,669.466064 643.179565,665.541626 
	C642.202332,662.132568 640.501221,660.090698 636.137268,662.776489 
z"/>
<path fill="#000000" opacity="1.000000" stroke="none" 
	d="
M412.426331,681.837280 
	C407.987335,681.870117 403.987823,681.865601 399.988342,681.872742 
	C396.810944,681.878418 394.908356,680.527039 394.910522,677.135559 
	C394.916321,668.136108 394.906799,659.136658 394.944122,650.137329 
	C394.956940,647.049500 396.581573,645.645874 399.679535,645.698486 
	C404.011353,645.772034 408.345612,645.730042 412.678528,645.697754 
	C414.959076,645.680725 416.698669,646.359192 416.749908,648.966003 
	C416.800659,651.547363 415.208130,652.387024 412.846588,652.359009 
	C410.849701,652.335327 408.844971,652.374023 406.854919,652.528931 
	C404.514130,652.711121 403.324341,653.930054 403.311066,656.437561 
	C403.296143,659.254822 404.932495,659.525879 407.180389,659.750305 
	C409.973206,660.028992 414.518616,657.969788 414.612823,662.982727 
	C414.709869,668.147522 410.072845,666.091064 407.334747,666.289551 
	C404.315521,666.508423 403.304199,667.761658 403.266632,670.652222 
	C403.227753,673.641052 404.356476,674.996887 407.371674,674.810303 
	C408.865356,674.718018 410.370605,674.797363 411.870300,674.820923 
	C414.076691,674.855530 416.468384,674.773743 416.804779,677.755493 
	C417.119507,680.544617 415.343445,681.584412 412.426331,681.837280 
z"/>
<path fill="#000000" opacity="1.000000" stroke="none" 
	d="
M757.116699,675.620544 
	C753.569763,668.658508 753.584900,661.745850 756.021423,654.991882 
	C759.090393,646.484741 769.390320,642.666443 777.547363,646.537048 
	C779.673218,647.545776 781.128418,648.984924 781.140564,651.437378 
	C781.154114,654.171021 780.141296,655.813782 777.195435,654.194153 
	C772.777100,651.765076 768.647217,651.245605 765.258362,655.752380 
	C762.316040,659.665283 762.481140,668.840515 765.554932,672.278320 
	C768.557434,675.636292 772.260132,675.283630 776.094910,673.909607 
	C777.769165,673.309753 779.899353,671.162354 780.999695,674.302734 
	C781.900269,676.872681 780.981506,679.119629 778.334045,680.546387 
	C771.454956,684.253723 762.536133,682.352661 757.116699,675.620544 
z"/>
<path fill="#000000" opacity="1.000000" stroke="none" 
	d="
M313.934998,681.552979 
	C309.823273,679.483276 308.219635,676.375854 309.037598,672.328430 
	C309.867584,668.221497 312.859375,666.347168 316.830231,665.670227 
	C319.052643,665.291382 321.482422,665.479736 323.549377,663.699280 
	C322.440674,659.339233 319.524261,660.397095 316.586823,661.101440 
	C314.474396,661.607971 311.646606,664.366699 310.429688,660.363647 
	C309.383453,656.922302 312.407654,655.815308 314.964539,654.949829 
	C325.881592,651.254456 332.135193,655.748596 332.160095,667.247925 
	C332.167694,670.744873 332.131134,674.242004 332.124237,677.739014 
	C332.120300,679.731201 331.361511,682.280945 329.414307,681.671326 
	C324.257446,680.056824 319.311035,683.691589 313.934998,681.552979 
M323.581573,672.055603 
	C321.490540,669.424438 319.509338,670.781433 317.819977,672.432068 
	C316.861572,673.368469 317.254089,674.798584 318.469055,675.329529 
	C320.769623,676.334900 322.641571,675.731018 323.608490,673.218445 
	C323.665771,673.069702 323.650421,672.893005 323.581573,672.055603 
z"/>
<path fill="#000000" opacity="1.000000" stroke="none" 
	d="
M456.445801,670.478149 
	C454.939545,670.841492 453.042480,670.043457 452.976898,672.063110 
	C452.923981,673.693420 454.160034,674.898804 455.639893,675.357788 
	C458.253296,676.168213 460.891266,675.835938 463.493927,674.995911 
	C465.093689,674.479553 466.895874,673.939514 467.621918,676.235901 
	C468.181976,678.007385 467.554810,679.502380 466.042480,680.600098 
	C462.306824,683.311646 452.171844,682.739807 448.422577,679.606934 
	C443.755219,675.706970 442.641052,666.620300 446.036346,660.146240 
	C448.583374,655.289673 454.901550,652.842163 460.722351,654.457275 
	C466.016266,655.926331 469.578033,661.149414 469.056976,666.602600 
	C468.834503,668.931030 467.771118,670.325623 465.297821,670.353455 
	C462.466705,670.385315 459.635620,670.417114 456.445801,670.478149 
M455.213898,664.775513 
	C456.909363,664.562073 458.803741,665.353516 460.309021,663.781067 
	C460.503784,661.482788 459.151825,660.585144 457.165100,660.363525 
	C455.549194,660.183411 454.338226,660.984070 453.498199,662.308167 
	C452.703735,663.560425 452.933655,664.458557 455.213898,664.775513 
z"/>
<path fill="#000000" opacity="1.000000" stroke="none" 
	d="
M554.567871,670.172974 
	C549.873596,670.734375 545.525391,669.738098 541.029480,671.029480 
	C541.754883,676.539307 545.688354,675.693909 549.216553,675.690247 
	C551.525452,675.687866 555.033447,672.760864 555.781189,677.011658 
	C556.572388,681.509277 552.252136,681.685791 549.293762,682.063232 
	C543.905029,682.750732 538.292542,682.816284 534.885681,677.567505 
	C531.345642,672.113586 531.744019,666.071411 534.238403,660.342773 
	C536.406677,655.363037 542.512939,652.991211 548.257202,654.325562 
	C553.817078,655.617065 557.045593,659.644897 557.170898,665.462708 
	C557.211548,667.348877 557.098816,669.176147 554.567871,670.172974 
M548.541870,664.165588 
	C549.161255,661.413330 547.337952,660.553406 545.245728,660.400208 
	C542.949280,660.232056 541.591675,661.458801 541.559326,663.908142 
	C543.761475,665.311462 545.893555,664.792786 548.541870,664.165588 
z"/>
<path fill="#000000" opacity="1.000000" stroke="none" 
	d="
M668.824219,664.351807 
	C669.019653,659.180420 665.723206,660.426025 662.841125,660.861328 
	C660.518311,661.212280 657.398193,664.363220 656.168457,660.236511 
	C654.982971,656.258545 658.803162,655.504089 661.668213,654.682861 
	C664.584778,653.847046 667.509827,653.747070 670.534302,654.488831 
	C674.847961,655.546692 677.204285,658.125183 677.325562,662.521667 
	C677.467712,667.678101 677.346985,672.841370 677.451111,677.999390 
	C677.522644,681.544983 675.558044,682.584595 672.673218,681.558105 
	C670.587463,680.815857 668.959351,681.123901 666.986816,681.743652 
	C661.370728,683.508240 656.003418,680.925598 654.867371,676.182617 
	C653.541687,670.648071 656.612671,666.771606 663.183411,665.640869 
	C664.983093,665.331055 666.767944,664.935425 668.824219,664.351807 
M668.050232,670.595154 
	C666.946472,670.792664 665.771362,670.815430 664.756348,671.230042 
	C663.352173,671.803650 661.996338,672.763367 662.909851,674.569946 
	C663.724426,676.180481 665.375671,676.204224 666.773865,675.605103 
	C668.840271,674.719604 670.742065,673.514465 668.050232,670.595154 
z"/>
<path fill="#000000" opacity="1.000000" stroke="none" 
	d="
M438.334381,672.185059 
	C437.587402,674.457336 436.886047,676.331726 436.314850,678.244995 
	C435.365234,681.425415 432.934906,682.080322 430.069885,682.040100 
	C427.379150,682.002319 425.222015,681.243896 424.272766,678.325500 
	C422.265045,672.153076 420.083221,666.037354 418.073181,659.865662 
	C417.475464,658.030334 416.473480,655.660828 419.354370,654.917236 
	C421.976837,654.240479 424.802429,654.139648 425.933105,657.579712 
	C427.325256,661.815491 428.677185,666.064453 430.452698,671.566528 
	C432.110901,666.458496 433.581299,662.620056 434.575500,658.662048 
	C435.480408,655.059448 437.777893,654.023987 440.895966,654.840027 
	C444.986908,655.910706 442.679321,658.799072 442.077637,660.913330 
	C441.031036,664.591125 439.668579,668.179077 438.334381,672.185059 
z"/>
<path fill="#000000" opacity="1.000000" stroke="none" 
	d="
M709.961304,668.959229 
	C709.963623,662.657532 709.953430,656.849487 709.971130,651.041504 
	C709.979919,648.180969 710.381165,645.747375 714.184998,645.670227 
	C718.032349,645.592102 718.418945,647.874512 718.385681,650.852722 
	C718.315125,657.157776 718.502441,663.468201 718.317505,669.768555 
	C718.211121,673.392578 719.498657,675.046326 723.214233,674.711426 
	C724.688660,674.578552 726.201904,674.707642 727.682922,674.859070 
	C729.479187,675.042847 730.182007,676.247986 730.247925,677.950623 
	C730.319763,679.805969 729.828369,681.359192 727.733521,681.571777 
	C722.776428,682.074829 717.797546,682.205322 712.849182,681.526062 
	C710.586182,681.215393 710.104126,679.323608 710.031738,677.416321 
	C709.931213,674.764771 709.977051,672.107605 709.961304,668.959229 
z"/>
<path fill="#000000" opacity="1.000000" stroke="none" 
	d="
M749.167236,681.561462 
	C745.286255,681.626953 741.796204,681.758606 738.305054,681.808716 
	C734.790588,681.859131 733.207153,680.125916 733.285583,676.560242 
	C733.475830,667.906311 733.563354,659.249451 733.613464,650.593384 
	C733.629517,647.824585 733.938049,645.670227 737.551270,645.658936 
	C740.946838,645.648315 741.880615,647.496033 741.893982,650.375854 
	C741.921143,656.204407 741.925537,662.032959 741.958801,667.861450 
	C741.996521,674.460754 742.007080,674.433716 748.451050,674.721069 
	C750.191895,674.798706 752.426514,674.162476 753.190674,676.462769 
	C754.237122,679.612244 753.423889,681.764954 749.167236,681.561462 
z"/>
<path fill="#000000" opacity="1.000000" stroke="none" 
	d="
M606.116638,681.312439 
	C603.548279,680.009644 602.319885,678.143921 603.370972,675.845520 
	C604.668396,673.008484 606.776367,675.257751 608.546021,675.525757 
	C610.498291,675.821411 612.504211,676.418030 614.272217,674.399048 
	C613.673584,671.420410 610.823669,671.265442 608.747803,670.272278 
	C605.305420,668.625427 602.968323,666.224731 603.130493,662.223328 
	C603.282532,658.473633 605.541443,656.119873 608.930481,654.839417 
	C612.716858,653.408691 616.482910,653.440186 619.905579,655.782227 
	C621.459473,656.845520 621.617798,658.669128 620.863770,660.297180 
	C620.106995,661.931213 618.691528,661.311646 617.392334,660.918701 
	C615.366516,660.306091 613.259827,659.443665 611.635864,661.733032 
	C612.195801,664.333435 614.473694,664.524780 616.166382,665.353333 
	C621.241516,667.837524 623.140991,670.936340 622.203308,675.482056 
	C621.343018,679.652954 617.749939,682.164612 612.396301,682.300903 
	C610.389648,682.352112 608.395813,682.240112 606.116638,681.312439 
z"/>
<path fill="#000000" opacity="1.000000" stroke="none" 
	d="
M594.172852,681.891479 
	C591.287476,681.288391 590.834900,679.456482 590.838318,677.307129 
	C590.848083,671.176575 590.872070,665.045898 590.830566,658.915588 
	C590.811951,656.162537 591.867310,654.419678 594.804688,654.336121 
	C597.696594,654.253784 599.070374,655.830139 599.085693,658.621521 
	C599.121033,665.083069 599.098816,671.544922 599.119629,678.006592 
	C599.129578,681.093140 597.250549,681.961121 594.172852,681.891479 
z"/>
<path fill="#000000" opacity="1.000000" stroke="none" 
	d="
M690.637939,682.289368 
	C688.011292,685.520630 687.113770,690.780579 680.805176,688.491455 
	C681.463989,683.872009 684.101318,679.830444 684.226196,675.143188 
	C684.280518,673.102051 686.630920,672.671570 688.588745,672.814514 
	C690.694946,672.968201 691.950623,674.075073 692.194946,676.218445 
	C692.431213,678.290588 691.708191,680.141235 690.637939,682.289368 
z"/>
<path fill="#000000" opacity="1.000000" stroke="none" 
	d="
M590.728027,648.769897 
	C590.701660,645.199585 592.445312,643.797607 595.431091,643.970093 
	C597.672607,644.099609 599.125183,645.300537 599.294189,647.718445 
	C599.452637,649.985107 598.608643,651.664307 596.372253,652.322632 
	C593.502808,653.167419 591.493225,652.249695 590.728027,648.769897 
z"/>
</svg>