<svg version="1.1" id="Layer_1" xmlns="http://www.w3.org/2000/svg" xmlns:xlink="http://www.w3.org/1999/xlink" x="0px" y="0px"
	 width="100%" viewBox="0 0 384 256" enable-background="new 0 0 384 256" xml:space="preserve">
<path fill="#000000" opacity="1.000000" stroke="none" 
	d="
M241.504715,236.808304 
	C236.811218,235.973877 232.437347,235.638611 228.431549,233.902740 
	C226.372833,233.010635 224.930695,234.031723 223.273361,234.737396 
	C206.425705,241.911026 188.788864,244.258209 171.661316,237.815704 
	C161.931503,234.155838 153.363876,234.915970 143.930283,236.611450 
	C124.618073,240.082352 105.837799,237.462265 87.555496,230.542526 
	C84.505486,229.388123 83.385994,227.624863 83.948952,224.473251 
	C88.193352,200.711792 97.826569,179.737915 115.738457,163.076630 
	C116.964027,161.936646 117.495361,160.782333 117.638191,159.228638 
	C119.547592,138.458420 128.355591,121.121788 144.607529,108.122345 
	C149.239960,104.417000 151.474884,100.390526 153.138519,95.018471 
	C159.512924,74.434692 171.307541,57.391792 187.809097,43.505135 
	C191.083511,40.749603 193.425690,40.399498 196.826141,43.278919 
	C215.030060,58.693554 227.812668,77.474434 233.241882,100.903557 
	C233.684326,102.812920 234.916916,103.662872 236.238495,104.634171 
	C252.847641,116.841225 263.479095,132.983994 266.481384,153.389450 
	C267.356812,159.339249 269.960632,163.158020 273.684967,167.242996 
	C288.440369,183.427124 297.268555,202.533188 300.959015,224.097656 
	C301.590179,227.785522 300.355896,229.455521 296.898132,230.738800 
	C279.061737,237.358307 260.804901,239.727005 241.504715,236.808304 
M167.429459,154.557587 
	C172.287491,170.355682 180.235672,184.198105 192.656525,195.674286 
	C205.472443,182.727341 214.108093,168.304245 218.384171,150.862915 
	C201.947418,146.299881 185.932892,145.947540 169.801773,150.065994 
	C167.647324,150.616058 166.483597,151.506470 167.429459,154.557587 
M216.901489,134.177658 
	C220.765915,135.391159 221.202850,132.684021 221.208649,130.093887 
	C221.218292,125.777542 220.601685,121.448288 220.788422,117.147903 
	C220.911530,114.312531 219.862686,112.986893 217.452866,111.923630 
	C201.047180,104.685135 184.652344,104.568459 168.144882,111.595558 
	C166.044586,112.489639 164.859329,113.762016 164.632660,115.920181 
	C164.182083,120.210381 163.496124,124.508995 163.492081,128.804688 
	C163.486847,134.345352 164.276993,134.807419 169.651367,133.738876 
	C185.167542,130.653946 200.663849,130.610611 216.901489,134.177658 
M133.647766,168.504333 
	C133.570206,168.827530 133.413986,169.153763 133.426300,169.473495 
	C134.182968,189.118576 144.001678,203.693634 159.060684,215.361908 
	C160.054276,216.131790 160.915192,215.930023 161.837509,215.558243 
	C167.992966,213.077042 174.004395,210.330048 179.677872,205.819580 
	C173.057327,198.640991 167.259918,191.205429 162.427963,183.025238 
	C157.628265,174.899597 154.705795,165.923584 151.170898,157.126968 
	C144.257919,159.885925 139.020920,163.674667 133.647766,168.504333 
M221.886322,184.285919 
	C217.225983,192.088013 211.467789,199.095505 205.337234,205.975037 
	C210.144745,209.653503 215.175415,211.557343 219.696793,214.295105 
	C223.120911,216.368469 225.292725,215.569778 228.047974,213.462479 
	C241.741821,202.988998 249.492661,189.195297 251.574966,172.142654 
	C251.778168,170.478516 252.102844,168.725372 250.537338,167.522232 
	C245.431610,163.598312 240.376297,159.569397 233.643280,157.317444 
	C230.301117,166.571106 227.104156,175.487030 221.886322,184.285919 
M263.295349,191.612656 
	C259.401520,202.723755 252.583191,212.031296 244.274429,221.019821 
	C257.129120,223.704666 268.878693,221.918121 280.589142,219.412827 
	C282.870483,218.924759 283.474213,217.445602 282.712433,215.291428 
	C281.381989,211.529175 280.351135,207.635132 278.717834,204.011230 
	C275.468719,196.802185 272.055389,189.638214 266.055603,183.312637 
	C265.084686,186.254211 264.320770,188.568634 263.295349,191.612656 
M210.653366,84.815460 
	C206.618210,77.100990 201.393631,70.249832 195.658035,63.729519 
	C193.308380,61.058407 191.440430,60.961647 189.264481,63.739578 
	C186.291779,67.534714 183.027878,71.120842 180.281982,75.069954 
	C176.449905,80.581169 172.958038,86.333832 170.713104,93.634438 
	C185.594238,89.548508 199.682007,89.966103 214.058136,93.415321 
	C213.673889,90.043716 211.965027,87.893150 210.653366,84.815460 
M125.622154,222.519653 
	C130.355026,222.173477 135.087891,221.827301 141.467407,221.360687 
	C129.818542,210.173615 123.026939,197.835144 119.134506,183.648422 
	C111.522118,190.614380 102.179977,210.264755 102.332970,218.615067 
	C109.535080,221.204727 117.194893,221.534195 125.622154,222.519653 
M240.626740,131.049774 
	C239.707718,130.197021 239.388596,128.668579 237.479614,128.472534 
	C237.517029,132.600647 236.002335,136.539139 236.590347,140.856262 
	C240.331451,141.842560 243.419113,144.497162 247.923645,144.840485 
	C247.274261,143.230988 246.946884,142.126221 246.407608,141.136963 
	C244.660721,137.932388 242.836075,134.770203 240.626740,131.049774 
M148.078690,135.095612 
	C147.880188,132.880829 147.681671,130.666046 147.447586,128.054276 
	C141.763062,133.836258 138.366074,139.914261 137.860519,145.059006 
	C140.796509,144.714233 142.987610,142.786530 145.552841,141.819809 
	C148.502243,140.708328 149.111755,138.666245 148.078690,135.095612 
M186.122833,224.900528 
	C191.341492,224.902573 196.601791,225.591751 201.953598,224.235626 
	C195.342621,216.264389 189.625824,216.336395 182.315536,224.409760 
	C183.418304,224.569229 184.372742,224.707245 186.122833,224.900528 
z"/>
</svg>